# xmcd
#
# Track frame offsets: 
#        150
#        8547
#        23868
#        36696
#        49802
#        59383
#        75756
#        93738
#        112278
#        128470
#        145986
#        158695
#        177973
#        188028
#        209445
#        234151
#
# Disc length: 3517 seconds
#
# Revision: 0
# Processed by: cddbd v1.5.2PL0 Copyright (c) Steve Scherf et al.
# Submitted via: ExactAudioCopy v1.0b1
#
DISCID=d00dbb10
DTITLE=Musik Oder Knast - Muzik oder Knast Premium Edition
DYEAR=2007
DGENRE=Hip-Hop
TTITLE0=Intro
TTITLE1=Ich Bin Back
TTITLE2=Warheit
TTITLE3=Fick Die Charts
TTITLE4=Hammerkörper
TTITLE5=All Die Echten Gangster
TTITLE6=Der Erste Rapper
TTITLE7=Die Sekte
TTITLE8=MOK Und ALPA
TTITLE9=ONE (Remix)
TTITLE10=Payback
TTITLE11=Ich Bin Back (Remix)
TTITLE12=Outro
TTITLE13=Keiner Fickt Mit Uns (Downstairs Digital Remix)
TTITLE14=Sektenmuzik (Exclusive Song)
TTITLE15=data
EXTD=
EXTT0=
EXTT1=
EXTT2=
EXTT3=
EXTT4=
EXTT5=
EXTT6=
EXTT7=
EXTT8=
EXTT9=
EXTT10=
EXTT11=
EXTT12=
EXTT13=
EXTT14=
EXTT15=
PLAYORDER=
